<svg width="29" height="23" viewBox="0 0 29 23" fill="none" xmlns="http://www.w3.org/2000/svg">
<path d="M24.5498 2.28039C22.6697 1.41745 20.6856 0.802102 18.6471 0.449769C18.6285 0.446148 18.6092 0.448526 18.5921 0.456561C18.5749 0.464597 18.5608 0.477874 18.5516 0.494477C18.2979 0.947602 18.0151 1.53848 17.817 2.00489C15.6195 1.67113 13.3843 1.67113 11.1868 2.00489C10.9663 1.48809 10.7174 0.983852 10.4413 0.494477C10.4318 0.478245 10.4176 0.465283 10.4005 0.457301C10.3835 0.449319 10.3644 0.446693 10.3458 0.449769C8.3072 0.80137 6.32297 1.41674 4.44313 2.28039C4.42722 2.28707 4.41373 2.29845 4.40447 2.31302C0.644134 7.93056 -0.386574 13.4091 0.119717 18.8189C0.120947 18.8323 0.124904 18.8453 0.131345 18.8572C0.137785 18.869 0.146575 18.8794 0.157176 18.8877C2.34619 20.5096 4.79489 21.7476 7.39872 22.549C7.41707 22.5543 7.43661 22.5539 7.45473 22.5479C7.47286 22.5418 7.48872 22.5304 7.50022 22.5151C8.05847 21.7539 8.5563 20.9504 8.98163 20.1057C8.98757 20.0942 8.991 20.0815 8.99169 20.0686C8.99238 20.0556 8.99032 20.0427 8.98564 20.0306C8.98096 20.0185 8.97377 20.0075 8.96454 19.9984C8.95531 19.9892 8.94425 19.9822 8.93209 19.9776C8.15081 19.6787 7.39444 19.3183 6.67009 18.8998C6.65681 18.8921 6.64564 18.8813 6.63756 18.8682C6.62949 18.8552 6.62476 18.8404 6.6238 18.8251C6.62285 18.8098 6.62569 18.7945 6.63208 18.7805C6.63847 18.7666 6.64821 18.7544 6.66043 18.7451C6.81297 18.631 6.96284 18.5134 7.10993 18.3923C7.12279 18.3819 7.13831 18.3752 7.15473 18.3731C7.17116 18.371 7.18786 18.3734 7.20297 18.3802C11.9493 20.5468 17.0871 20.5468 21.7779 18.3802C21.7931 18.3732 21.8101 18.3706 21.8267 18.3727C21.8434 18.3749 21.8591 18.3816 21.8721 18.3923C22.0171 18.5107 22.1694 18.6316 22.3228 18.7451C22.3349 18.7543 22.3446 18.7662 22.351 18.7799C22.3574 18.7936 22.3604 18.8087 22.3597 18.8238C22.359 18.8389 22.3546 18.8536 22.3469 18.8667C22.3392 18.8797 22.3285 18.8907 22.3156 18.8986C21.5929 19.321 20.8358 19.6815 20.0524 19.9764C20.0402 19.9811 20.0291 19.9883 20.0199 19.9975C20.0106 20.0068 20.0035 20.0178 19.9988 20.03C19.9941 20.0422 19.9921 20.0553 19.9928 20.0683C19.9935 20.0814 19.9969 20.0941 20.0028 20.1057C20.4378 20.9491 20.9357 21.7515 21.483 22.5139C21.4943 22.5295 21.5102 22.5411 21.5284 22.5472C21.5466 22.5532 21.5662 22.5534 21.5846 22.5478C24.1927 21.7489 26.6454 20.5107 28.837 18.8865C28.8476 18.879 28.8566 18.8693 28.8633 18.858C28.8699 18.8468 28.8741 18.8343 28.8756 18.8213C29.4798 12.5657 27.863 7.13185 24.5873 2.31544C24.5796 2.29919 24.5663 2.2863 24.5498 2.27919V2.28039ZM9.69093 15.5237C8.26147 15.5237 7.08455 14.2127 7.08455 12.6008C7.08455 10.9901 8.23972 9.67781 9.69093 9.67781C11.153 9.67781 12.3203 11.0021 12.2973 12.602C12.2973 14.2127 11.1421 15.5237 9.69093 15.5237ZM19.3274 15.5237C17.8979 15.5237 16.721 14.2127 16.721 12.6008C16.721 10.9901 17.875 9.67781 19.3274 9.67781C20.7895 9.67781 21.9567 11.0021 21.9338 12.602C21.9338 14.2127 20.7907 15.5237 19.3274 15.5237Z" fill="white"/>
</svg>
