<svg width="25" height="25" viewBox="0 0 25 25" fill="none" xmlns="http://www.w3.org/2000/svg">
<path d="M12.15 0C8.92762 0 5.83722 1.28009 3.55865 3.55865C1.28009 5.83722 0 8.92762 0 12.15C0 15.3724 1.28009 18.4628 3.55865 20.7413C5.83722 23.0199 8.92762 24.3 12.15 24.3C15.3724 24.3 18.4628 23.0199 20.7413 20.7413C23.0199 18.4628 24.3 15.3724 24.3 12.15C24.3 8.92762 23.0199 5.83722 20.7413 3.55865C18.4628 1.28009 15.3724 0 12.15 0ZM1.4985 13.068H4.887C4.941 14.2965 5.11245 15.5169 5.4 16.713H2.484C1.94023 15.5667 1.60644 14.3321 1.4985 13.068ZM13.068 5.778V1.6065C14.369 2.1009 15.438 3.06399 16.065 4.3065C16.3417 4.77495 16.5861 5.2623 16.794 5.7645L13.068 5.778ZM17.415 7.6005C17.7282 8.79255 17.9145 10.0143 17.9685 11.2455H13.068V7.6005H17.415ZM11.232 1.6065V5.778H7.506C7.71425 5.27539 7.95786 4.78817 8.235 4.32C8.85933 3.0724 9.9287 2.10419 11.232 1.6065ZM11.232 7.6005V11.2455H6.345C6.399 10.0143 6.5853 8.79255 6.8985 7.6005H11.232ZM4.887 11.232H1.4985C1.60644 9.96785 1.94023 8.73331 2.484 7.587H5.4C5.1119 8.78262 4.9401 10.0033 4.887 11.232ZM6.345 13.068H11.232V16.713H6.8985C6.58535 15.521 6.39981 14.2992 6.345 13.068ZM11.2455 18.468V22.6395C9.94453 22.1451 8.8755 21.182 8.2485 19.9395C7.97136 19.4713 7.72775 18.9841 7.5195 18.4815L11.2455 18.468ZM13.068 22.6395V18.5355H16.794C16.5857 19.0381 16.3421 19.5253 16.065 19.9935C15.438 21.236 14.369 22.1991 13.068 22.6935V22.6395ZM13.068 16.6455V13.0005H17.955C17.9002 14.2317 17.7146 15.4535 17.4015 16.6455H13.068ZM19.4265 13.0005H22.815C22.7071 14.2646 22.3733 15.4992 21.8295 16.6455H18.9C19.1835 15.471 19.3549 14.2735 19.413 13.068L19.4265 13.0005ZM19.4265 11.178C19.3647 9.97152 19.1884 8.77364 18.9 7.6005H21.816C22.36 8.748 22.6935 9.9819 22.8015 11.2455L19.4265 11.178ZM20.7765 5.778H18.36C17.9228 4.5499 17.289 3.40095 16.4835 2.376C18.1634 3.13008 19.6226 4.30117 20.7225 5.778H20.7765ZM7.8165 2.376C7.01098 3.40095 6.37723 4.5499 5.94 5.778H3.5775C4.67737 4.30117 6.13658 3.13008 7.8165 2.376ZM3.564 18.576H5.94C6.37723 19.8041 7.01098 20.953 7.8165 21.978C6.13194 21.2126 4.67228 20.0272 3.5775 18.5355L3.564 18.576ZM16.47 21.978C17.2755 20.953 17.9093 19.8041 18.3465 18.576H20.7225C19.6159 20.033 18.1573 21.1851 16.4835 21.924L16.47 21.978Z" fill="white"/>
</svg>
