<svg width="17" height="18" viewBox="0 0 17 18" fill="none" xmlns="http://www.w3.org/2000/svg">
<path d="M7.34765 0.74616C7.66427 0.461689 8.07488 0.304321 8.50053 0.304321C8.92617 0.304321 9.33678 0.461689 9.6534 0.74616L15.9784 6.42946C16.1582 6.59118 16.3021 6.78891 16.4005 7.00981C16.499 7.23072 16.5499 7.46986 16.55 7.71171V15.825C16.55 16.2825 16.3682 16.7212 16.0447 17.0447C15.7212 17.3682 15.2824 17.55 14.825 17.55H11.95C11.4925 17.55 11.0537 17.3682 10.7302 17.0447C10.4067 16.7212 10.225 16.2825 10.225 15.825V11.8C10.225 11.6475 10.1644 11.5012 10.0565 11.3934C9.9487 11.2855 9.80245 11.225 9.64995 11.225H7.34995C7.19745 11.225 7.0512 11.2855 6.94336 11.3934C6.83553 11.5012 6.77495 11.6475 6.77495 11.8V15.825C6.77495 16.2825 6.59321 16.7212 6.26971 17.0447C5.94621 17.3682 5.50745 17.55 5.04995 17.55H2.17495C1.71745 17.55 1.27869 17.3682 0.955192 17.0447C0.631692 16.7212 0.449951 16.2825 0.449951 15.825V7.71171C0.449951 7.22296 0.656951 6.75721 1.02265 6.42946L7.34765 0.74616ZM8.88405 1.60176C8.77853 1.50704 8.64174 1.45465 8.49995 1.45465C8.35816 1.45465 8.22137 1.50704 8.11585 1.60176L1.79085 7.28506C1.73093 7.33885 1.68298 7.40462 1.65009 7.47811C1.61721 7.55161 1.60013 7.63119 1.59995 7.71171V15.825C1.59995 15.9775 1.66053 16.1237 1.76836 16.2315C1.8762 16.3394 2.02245 16.4 2.17495 16.4H5.04995C5.20245 16.4 5.3487 16.3394 5.45654 16.2315C5.56437 16.1237 5.62495 15.9775 5.62495 15.825V11.8C5.62495 11.3425 5.80669 10.9037 6.13019 10.5802C6.45369 10.2567 6.89245 10.075 7.34995 10.075H9.64995C10.1074 10.075 10.5462 10.2567 10.8697 10.5802C11.1932 10.9037 11.375 11.3425 11.375 11.8V15.825C11.375 15.9775 11.4355 16.1237 11.5434 16.2315C11.6512 16.3394 11.7975 16.4 11.95 16.4H14.825C14.9775 16.4 15.1237 16.3394 15.2315 16.2315C15.3394 16.1237 15.4 15.9775 15.4 15.825V7.71171C15.3998 7.63119 15.3827 7.55161 15.3498 7.47811C15.3169 7.40462 15.269 7.33885 15.2091 7.28506L8.88405 1.60176Z" fill="white"/>
</svg>
