<svg width="21" height="18" viewBox="0 0 21 18" fill="none" xmlns="http://www.w3.org/2000/svg">
<path d="M1.3125 2.7117C2.47406 2.22608 4.13963 1.70239 5.75925 1.53964C7.50488 1.36376 8.98538 1.62233 9.84375 2.52664V15.3183C8.61656 14.6226 7.06125 14.5268 5.62669 14.6712C4.07794 14.8287 2.51606 15.2763 1.3125 15.7356V2.7117ZM11.1562 2.52664C12.0146 1.62233 13.4951 1.36376 15.2408 1.53964C16.8604 1.70239 18.5259 2.22608 19.6875 2.7117V15.7356C18.4826 15.2763 16.9221 14.8274 15.3733 14.6725C13.9374 14.5268 12.3834 14.6213 11.1562 15.3183V2.52664ZM10.5 1.34014C9.20719 0.22845 7.33294 0.0630754 5.62669 0.2337C3.63956 0.434513 1.63406 1.1157 0.384563 1.68401C0.269914 1.73616 0.172693 1.82019 0.104503 1.92608C0.0363125 2.03197 3.4875e-05 2.15525 0 2.2812L0 16.7187C3.04001e-05 16.8285 0.0276113 16.9365 0.0802162 17.0329C0.132821 17.1293 0.208769 17.2109 0.301102 17.2704C0.393435 17.3298 0.499202 17.3651 0.608716 17.373C0.718229 17.381 0.827987 17.3613 0.927938 17.3159C2.08556 16.7909 3.95063 16.1596 5.75794 15.9771C7.60725 15.7908 9.15731 16.0913 9.98812 17.1282C10.0496 17.2048 10.1275 17.2667 10.2161 17.3092C10.3047 17.3517 10.4017 17.3738 10.5 17.3738C10.5983 17.3738 10.6953 17.3517 10.7839 17.3092C10.8725 17.2667 10.9504 17.2048 11.0119 17.1282C11.8427 16.0913 13.3928 15.7908 15.2408 15.9771C17.0494 16.1596 18.9158 16.7909 20.0721 17.3159C20.172 17.3613 20.2818 17.381 20.3913 17.373C20.5008 17.3651 20.6066 17.3298 20.6989 17.2704C20.7912 17.2109 20.8672 17.1293 20.9198 17.0329C20.9724 16.9365 21 16.8285 21 16.7187V2.2812C21 2.15525 20.9637 2.03197 20.8955 1.92608C20.8273 1.82019 20.7301 1.73616 20.6154 1.68401C19.3659 1.1157 17.3604 0.434513 15.3733 0.2337C13.6671 0.0617629 11.7928 0.22845 10.5 1.34014Z" fill="white"/>
</svg>
