<svg width="32" height="20" viewBox="0 0 32 20" fill="none" xmlns="http://www.w3.org/2000/svg">
<path fill-rule="evenodd" clip-rule="evenodd" d="M31.2667 1.93063C31.488 1.20263 31.2667 0.666626 30.2067 0.666626H26.7067C25.816 0.666626 25.4053 1.12929 25.1827 1.63996C25.1827 1.63996 23.4027 5.90129 20.8813 8.66929C20.0653 9.47196 19.6947 9.72663 19.2493 9.72663C19.0267 9.72663 18.692 9.47196 18.692 8.74263V1.93063C18.692 1.05596 18.4467 0.666626 17.7053 0.666626H12.2013C11.6453 0.666626 11.3107 1.07196 11.3107 1.45729C11.3107 2.28529 12.572 2.47729 12.7013 4.80796V9.87196C12.7013 10.9826 12.4973 11.184 12.052 11.184C10.8653 11.184 7.97867 6.90263 6.26533 2.00396C5.93333 1.05063 5.59733 0.666626 4.70267 0.666626H1.2C0.2 0.666626 0 1.12929 0 1.63996C0 2.54929 1.18667 7.06663 5.52667 13.0413C8.42 17.1213 12.4933 19.3333 16.204 19.3333C18.4293 19.3333 18.704 18.8426 18.704 17.996V14.912C18.704 13.9293 18.9147 13.7333 19.62 13.7333C20.14 13.7333 21.0293 13.9893 23.1067 15.956C25.48 18.288 25.8707 19.3333 27.2067 19.3333H30.7067C31.7067 19.3333 32.208 18.8426 31.92 17.872C31.6027 16.9066 30.4693 15.5053 28.9667 13.8426C28.1507 12.896 26.9267 11.876 26.5547 11.3653C26.036 10.7106 26.184 10.4186 26.5547 9.83596C26.5547 9.83596 30.8213 3.93463 31.2653 1.93063H31.2667Z" fill="white"/>
</svg>
